<?xml version="1.0" encoding="UTF-8" standalone="no"?>
<svg
   xmlns:dc="http://purl.org/dc/elements/1.1/"
   xmlns:cc="http://creativecommons.org/ns#"
   xmlns:rdf="http://www.w3.org/1999/02/22-rdf-syntax-ns#"
   xmlns:svg="http://www.w3.org/2000/svg"
   xmlns="http://www.w3.org/2000/svg"
   version="1.1"
   id="svg4198"
   viewBox="0 0 645.32421 556.16323"
   height="156.96162mm"
   width="182.12483mm">
  <defs
     id="defs4200" />
  <metadata
     id="metadata4203">
    <rdf:RDF>
      <cc:Work
         rdf:about="">
        <dc:format>image/svg+xml</dc:format>
        <dc:type
           rdf:resource="http://purl.org/dc/dcmitype/StillImage" />
        <dc:title></dc:title>
      </cc:Work>
    </rdf:RDF>
  </metadata>
  <g
     transform="translate(-58.703919,-185.50099)"
     id="layer1">
    <path
       id="path3545-7"
       d="m 334.88405,727.65803 c -32.63728,-15.83725 -65.2746,-42.0813 -97.91194,-39.35679 -47.50217,4.50397 -51.80541,4.36792 -69.11437,3.83969 55.67547,60.04865 111.35092,53.92893 167.02631,35.5171 z"
       style="fill:#000000;fill-opacity:1;fill-rule:evenodd;stroke:#000000;stroke-width:2.5189395px;stroke-linecap:butt;stroke-linejoin:miter;stroke-opacity:1" />
    <path
       id="path3547-5"
       d="m 241.77172,677.74209 c -37.60771,-16.9159 -44.51593,-39.82684 -63.35486,-61.43496 -15.78987,-23.14155 -60.47948,-25.64046 -92.152456,-37.43696 24.185656,66.89157 75.010006,101.09016 155.507316,98.87192 z"
       style="fill:#000000;fill-opacity:1;fill-rule:evenodd;stroke:#000000;stroke-width:2.5189395px;stroke-linecap:butt;stroke-linejoin:miter;stroke-opacity:1" />
    <path
       id="path3560-3"
       d="m 200.49509,627.82619 c -2.43155,-20.79831 2.61343,-41.59661 7.67937,-62.39491 4.48958,-27.83774 -11.36976,-55.67545 -23.99804,-83.51318 -25.41627,57.14799 -32.07446,109.12132 16.31867,145.90809 z"
       style="fill:#000000;fill-opacity:1;fill-rule:evenodd;stroke:#000000;stroke-width:2.5189395px;stroke-linecap:butt;stroke-linejoin:miter;stroke-opacity:1" />
    <path
       id="path3562-5"
       d="M 153.4589,589.42931 C 144.17967,567.56345 134.90045,545.29409 125.62121,518.39512 113.1098,486.53869 84.894628,460.96375 60.346502,433.922 67.055223,499.54406 71.974361,566.18023 153.4589,589.42931 Z"
       style="fill:#000000;fill-opacity:1;fill-rule:evenodd;stroke:#000000;stroke-width:2.5189395px;stroke-linecap:butt;stroke-linejoin:miter;stroke-opacity:1" />
    <path
       id="path3575-6"
       d="m 150.46885,555.7323 c -0.008,-11.17734 -4.16149,-4.42452 22.29414,-63.48977 15.14894,-37.65671 0.89511,-69.01279 0,-103.23148 -30.35676,45.22036 -69.22843,86.59527 -22.29414,166.72125 z"
       style="fill:#000000;fill-opacity:1;fill-rule:evenodd;stroke:#000000;stroke-width:2.5189395px;stroke-linecap:butt;stroke-linejoin:miter;stroke-opacity:1" />
    <path
       id="path3577-2"
       d="m 112.66577,478.6722 c -0.0877,-23.61063 2.51274,-42.53744 7.75447,-61.0665 3.92474,-46.29003 -16.40277,-73.92443 -27.625328,-108.56269 -14.615802,46.98532 -40.004013,89.12307 19.870858,169.62919 z"
       style="fill:#000000;fill-opacity:1;fill-rule:evenodd;stroke:#000000;stroke-width:2.5189395px;stroke-linecap:butt;stroke-linejoin:miter;stroke-opacity:1" />
    <path
       id="path3579-9"
       d="m 128.17473,428.26809 c 12.11977,-19.7008 26.53071,-33.67368 41.19566,-47.01152 21.88757,-30.40257 19.99513,-58.97588 26.656,-88.20717 -43.84357,20.30882 -70.46267,60.71284 -67.85166,135.21869 z"
       style="fill:#000000;fill-opacity:1;fill-rule:evenodd;stroke:#000000;stroke-width:2.5189395px;stroke-linecap:butt;stroke-linejoin:miter;stroke-opacity:1" />
    <path
       id="path3581-1"
       d="m 121.38956,361.38574 c 4.58416,-15.53716 11.73874,-29.53205 22.77877,-41.19567 22.23627,-28.80697 11.99303,-61.94459 16.96291,-93.05373 -23.25273,35.00084 -63.506171,53.4369 -39.74168,134.2494 z"
       style="fill:#000000;fill-opacity:1;fill-rule:evenodd;stroke:#000000;stroke-width:2.5189395px;stroke-linecap:butt;stroke-linejoin:miter;stroke-opacity:1" />
    <path
       id="path3583-2"
       d="m 167.43177,294.50335 c 13.95644,-10.16033 28.37258,-15.92977 43.61893,-23.26343 43.52254,-39.05265 34.89516,-54.92755 52.34272,-82.39131 -36.7539,19.51621 -79.86159,18.10231 -95.96165,105.65474 z"
       style="fill:#000000;fill-opacity:1;fill-rule:evenodd;stroke:#000000;stroke-width:2.5189395px;stroke-linecap:butt;stroke-linejoin:miter;stroke-opacity:1" />
    <path
       id="path3502-7"
       d="m 373.28089,726.69811 c -8.35738,-51.89866 -48.53667,-75.38128 -92.1524,-119.03029 -0.42832,28.15771 -3.3456,56.31541 13.43892,84.47311 24.76135,26.28326 51.40616,33.73271 78.71348,34.55718 z"
       style="fill:#000000;fill-opacity:1;fill-rule:evenodd;stroke:#000000;stroke-width:2.5189395px;stroke-linecap:butt;stroke-linejoin:miter;stroke-opacity:1" />
    <path
       id="path3543-0"
       d="m 275.36895,687.34133 c -1.30848,-24.52088 -6.0657,-77.25301 -19.19842,-93.1124 -16.6694,-20.15835 -33.2011,-29.75757 -40.3167,-47.99608 -0.15618,50.48347 -11.52602,102.9004 59.51512,141.10848 z"
       style="fill:#000000;fill-opacity:1;fill-rule:evenodd;stroke:#000000;stroke-width:2.5189395px;stroke-linecap:butt;stroke-linejoin:miter;stroke-opacity:1" />
    <path
       id="path3545-7-4"
       d="m 427.84797,727.65803 c 32.6373,-15.83725 65.27462,-42.0813 97.91197,-39.35679 47.50216,4.50397 51.80541,4.36792 69.11436,3.83969 -55.67547,60.04865 -111.35091,53.92893 -167.02633,35.5171 z"
       style="fill:#000000;fill-opacity:1;fill-rule:evenodd;stroke:#000000;stroke-width:2.5189395px;stroke-linecap:butt;stroke-linejoin:miter;stroke-opacity:1" />
    <path
       id="path3547-5-7"
       d="m 520.96033,677.74209 c 37.60771,-16.9159 44.51593,-39.82684 63.35485,-61.43496 15.78988,-23.14155 60.47949,-25.64046 92.15246,-37.43696 -24.18565,66.89157 -75.01,101.09016 -155.50731,98.87192 z"
       style="fill:#000000;fill-opacity:1;fill-rule:evenodd;stroke:#000000;stroke-width:2.5189395px;stroke-linecap:butt;stroke-linejoin:miter;stroke-opacity:1" />
    <path
       id="path3560-3-4"
       d="m 562.23695,627.82619 c 2.43156,-20.79831 -2.61342,-41.59661 -7.67936,-62.39491 -4.48958,-27.83774 11.36976,-55.67545 23.99803,-83.51318 25.41628,57.14799 32.07446,109.12132 -16.31867,145.90809 z"
       style="fill:#000000;fill-opacity:1;fill-rule:evenodd;stroke:#000000;stroke-width:2.5189395px;stroke-linecap:butt;stroke-linejoin:miter;stroke-opacity:1" />
    <path
       id="path3562-5-7"
       d="m 609.27313,589.42931 c 9.27924,-21.86586 18.55846,-44.13522 27.83771,-71.03419 12.5114,-31.85643 40.72657,-57.43137 65.27469,-84.47312 -6.70871,65.62206 -11.62785,132.25823 -93.1124,155.50731 z"
       style="fill:#000000;fill-opacity:1;fill-rule:evenodd;stroke:#000000;stroke-width:2.5189395px;stroke-linecap:butt;stroke-linejoin:miter;stroke-opacity:1" />
    <path
       id="path3575-6-1"
       d="m 612.2632,555.7323 c 0.008,-11.17734 4.16149,-4.42452 -22.29414,-63.48977 -15.14894,-37.65671 -0.89513,-69.01279 0,-103.23148 30.35676,45.22036 69.22843,86.59527 22.29414,166.72125 z"
       style="fill:#000000;fill-opacity:1;fill-rule:evenodd;stroke:#000000;stroke-width:2.5189395px;stroke-linecap:butt;stroke-linejoin:miter;stroke-opacity:1" />
    <path
       id="path3577-2-4"
       d="m 650.06627,478.6722 c 0.0877,-23.61063 -2.51273,-42.53744 -7.75447,-61.0665 -3.92473,-46.29003 16.40278,-73.92443 27.62533,-108.56269 14.6158,46.98532 40.00401,89.12307 -19.87086,169.62919 z"
       style="fill:#000000;fill-opacity:1;fill-rule:evenodd;stroke:#000000;stroke-width:2.5189395px;stroke-linecap:butt;stroke-linejoin:miter;stroke-opacity:1" />
    <path
       id="path3579-9-0"
       d="m 634.55732,428.26809 c -12.11978,-19.7008 -26.53071,-33.67368 -41.19567,-47.01152 -21.88757,-30.40257 -19.99512,-58.97588 -26.656,-88.20717 43.84358,20.30882 70.46268,60.71284 67.85167,135.21869 z"
       style="fill:#000000;fill-opacity:1;fill-rule:evenodd;stroke:#000000;stroke-width:2.5189395px;stroke-linecap:butt;stroke-linejoin:miter;stroke-opacity:1" />
    <path
       id="path3581-1-4"
       d="m 641.34248,361.38574 c -4.58416,-15.53716 -11.73873,-29.53205 -22.77877,-41.19567 -22.23627,-28.80697 -11.99302,-61.94459 -16.96292,-93.05373 23.25274,35.00084 63.50618,53.4369 39.74169,134.2494 z"
       style="fill:#000000;fill-opacity:1;fill-rule:evenodd;stroke:#000000;stroke-width:2.5189395px;stroke-linecap:butt;stroke-linejoin:miter;stroke-opacity:1" />
    <path
       id="path3583-2-8"
       d="m 595.30028,294.50335 c -13.95644,-10.16033 -28.37259,-15.92977 -43.61895,-23.26343 -43.52254,-39.05265 -34.89514,-54.92755 -52.3427,-82.39131 36.7539,19.51621 79.86159,18.10231 95.96165,105.65474 z"
       style="fill:#000000;fill-opacity:1;fill-rule:evenodd;stroke:#000000;stroke-width:2.5189395px;stroke-linecap:butt;stroke-linejoin:miter;stroke-opacity:1" />
    <path
       id="path3502-7-3"
       d="m 389.45113,726.69811 c 8.35738,-51.89866 48.53667,-75.38128 92.15243,-119.03029 0.42832,28.15771 3.3456,56.31541 -13.43893,84.47311 -24.76137,26.28326 -51.40618,33.73271 -78.7135,34.55718 z"
       style="fill:#000000;fill-opacity:1;fill-rule:evenodd;stroke:#000000;stroke-width:2.5189395px;stroke-linecap:butt;stroke-linejoin:miter;stroke-opacity:1" />
    <path
       id="path3543-0-3"
       d="m 487.36308,687.34133 c 1.3085,-24.52088 6.06572,-77.25301 19.19843,-93.1124 16.66941,-20.15835 33.20111,-29.75757 40.31671,-47.99608 0.15618,50.48347 11.52602,102.9004 -59.51514,141.10848 z"
       style="fill:#000000;fill-opacity:1;fill-rule:evenodd;stroke:#000000;stroke-width:2.5189395px;stroke-linecap:butt;stroke-linejoin:miter;stroke-opacity:1" />
    <path
       id="path4138"
       d="m 375.92127,646.42772 c -4.24917,-4.79953 -9.63731,-14.78639 -9.63731,-17.86272 0,-0.70934 -0.3057,-2.16665 -0.67933,-3.23846 -0.61223,-1.75631 -1.06013,-2.0158 -4.53556,-2.628 -4.62699,-0.81504 -8.07219,-2.43526 -9.33091,-4.38826 l -0.9254,-1.43582 4.13877,0 c 3.62092,0 4.34928,-0.21058 5.82116,-1.68237 0.92531,-0.92533 1.68241,-2.16014 1.68241,-2.74403 0,-0.58391 0.23879,-1.33446 0.53056,-1.66789 0.52022,-0.59442 1.88929,-4.93614 2.3868,-7.56933 0.13853,-0.73306 0.42307,-2.12254 0.63237,-3.08775 0.34303,-1.58185 -0.57186,-2.58033 -1.10351,-1.20433 -0.55843,1.44534 -11.3022,14.12619 -11.96952,14.1276 -0.20228,4.3e-4 -1.2295,0.7544 -2.28244,1.67547 -2.91253,2.54776 -5.59001,3.42894 -10.41912,3.42894 -3.66365,0 -4.9965,-0.31955 -7.98526,-1.91445 -1.97319,-1.05294 -3.84114,-1.91444 -4.15106,-1.91444 -0.30991,0 -0.53069,1.0769 -0.49067,2.39306 0.0663,2.18138 -0.0892,2.41156 -1.7592,2.60242 -3.00623,0.34353 -4.44812,-0.37176 -6.42768,-3.1888 -1.89555,-2.69741 -2.70428,-7.02001 -1.58139,-8.45218 3.48344,-4.44278 4.56059,-5.29009 8.35089,-6.56894 2.22352,-0.75021 5.29066,-1.53766 6.81582,-1.74985 1.96029,-0.27276 3.45654,-1.03376 5.10519,-2.59651 1.28267,-1.21589 2.54747,-2.21318 2.81073,-2.21623 0.26323,-0.003 0.4786,-0.46742 0.4786,-1.03194 0,-0.80046 -0.3863,-0.92998 -1.7549,-0.58842 -0.9652,0.24082 -2.18566,0.78589 -2.71211,1.21114 -2.71799,2.1954 -5.59888,2.84033 -12.23596,2.73917 -6.23769,-0.095 -6.84645,-0.22091 -8.99054,-1.8569 -2.5731,-1.96344 -4.39223,-2.22366 -5.57568,-0.79767 -1.1122,1.34013 -1.52849,1.24335 -5.45491,-1.26836 l -3.47916,-2.22558 0,-4.0365 c 0,-3.58954 0.19824,-4.22637 1.78983,-5.75127 0.98441,-0.94312 2.13306,-1.71474 2.55256,-1.71474 0.41953,0 0.7628,-0.24384 0.7628,-0.542 0,-0.29811 2.94346,-0.72002 6.54098,-0.9376 7.15885,-0.43295 9.85642,-1.04003 15.156,-3.41065 3.94022,-1.76252 9.57223,-7.22323 9.57223,-9.28105 0,-1.21406 -0.24233,-1.27408 -3.3503,-0.83008 -7.41049,1.05861 -11.30282,-0.0131 -16.81948,-4.62244 -2.08358,-1.74162 -2.75361,-2.80275 -3.07054,-4.86262 -0.22293,-1.44917 -0.57321,-3.56813 -0.77835,-4.70883 -0.53557,-2.97809 1.00744,-2.72126 4.29567,0.71495 3.20111,3.34521 4.76065,3.30467 5.36038,-0.13929 0.30381,-1.74461 1.07928,-2.84142 3.08466,-4.36265 3.59912,-2.73025 5.69906,-3.49987 12.23517,-4.48414 2.3129,-0.34833 5.42389,-1.96521 7.98238,-4.14872 0.52953,-0.45193 2.91166,-3.17669 5.29362,-6.05503 l 4.33089,-5.2334 -1.94336,-1.00493 c -1.06884,-0.55273 -1.94336,-1.29638 -1.94336,-1.65255 0,-0.80226 2.6066,-4.57259 3.60919,-5.22053 0.40565,-0.26217 0.92132,-1.98517 1.14599,-3.82888 0.22469,-1.84374 0.67014,-4.64451 0.98999,-6.2239 1.49441,-7.37937 0.93274,-10.77381 -1.62061,-9.79402 -0.51903,0.19925 -1.64927,-0.10025 -2.51167,-0.66525 -1.02352,-0.67061 -2.96839,-1.02741 -5.60081,-1.02741 -3.83641,0 -4.08995,0.0967 -5.20591,1.98587 -1.09567,1.85484 -1.41141,3.39811 -1.58472,7.74589 -0.0386,0.9652 -0.28534,1.72091 -0.54857,1.67935 -2.74803,-0.43391 -5.22292,0.23577 -6.16075,1.66711 -1.63053,2.48846 -1.79255,6.64924 -0.33129,8.50694 0.67502,0.85815 1.22732,1.83358 1.22732,2.16762 0,0.35036 -2.18147,0.52467 -5.15561,0.41197 l -5.15559,-0.19547 -2.18309,2.5262 c -1.2007,1.38939 -2.1831,2.83781 -2.1831,3.2187 0,0.38088 -1.57365,2.79584 -3.49693,5.36662 -1.92334,2.57078 -3.68238,5.27753 -3.90899,6.01502 -0.2267,0.73747 -1.62789,2.7767 -3.11393,4.5316 -2.806,3.31361 -5.5819,8.29518 -6.31192,11.32712 l -0.42249,1.75492 3.76288,0 c 2.24796,0 4.01727,0.32117 4.39468,0.79768 1.68444,2.12677 4.62966,8.24108 4.62966,9.61121 0,1.99513 -1.9553,4.45029 -4.95609,6.22301 -1.3104,0.77415 -2.96494,2.08347 -3.67674,2.9096 -1.10026,1.27701 -2.00856,1.53662 -6.06239,1.73266 -5.10264,0.24661 -7.16425,-0.31361 -9.30949,-2.53033 -1.66646,-1.72196 -1.23429,-2.48289 1.71826,-3.02529 1.25519,-0.23049 2.83458,-0.84634 3.50979,-1.36834 1.20907,-0.93472 1.20832,-0.96433 -0.0486,-1.95528 -0.95764,-0.75495 -2.36114,-0.94838 -5.62127,-0.77472 -2.38973,0.12742 -4.54349,0.53868 -4.78612,0.91414 -0.24257,0.37546 -1.58977,0.89335 -2.99371,1.15089 -3.72667,0.68359 -4.14796,1.27199 -4.14796,5.79338 0,3.91803 0.0504,4.03655 2.27927,5.35158 3.57981,2.11214 2.79128,3.52262 -2.10025,3.75668 -5.18758,0.24812 -6.98325,-0.70193 -12.94196,-6.84833 -2.63237,-2.71523 -5.39264,-5.34301 -6.13397,-5.83945 -2.27745,-1.52517 -4.60024,-5.573 -5.38849,-9.39032 -0.41305,-2.00042 -1.43549,-4.92708 -2.27206,-6.5037 -1.86155,-3.50833 -2.05775,-8.05341 -0.40426,-9.36562 3.08731,-2.45013 8.7014,-6.10829 9.63361,-6.2773 6.32079,-1.14609 7.83713,-1.08924 10.81023,0.40542 1.65444,0.83173 3.69944,2.01991 4.54447,2.64043 2.08009,1.52741 8.10818,3.22006 9.8821,2.77486 2.05858,-0.51671 7.33555,-6.00268 8.66498,-9.0082 0.62097,-1.40393 1.76019,-3.11737 2.53155,-3.80764 0.77138,-0.69025 2.62703,-3.7055 4.12368,-6.70054 1.49666,-2.99503 3.47478,-6.54409 4.39583,-7.88681 0.92107,-1.34272 1.85006,-2.99394 2.06445,-3.66936 0.21436,-0.67543 0.63215,-1.22803 0.92841,-1.22803 0.29627,0 0.4663,-0.50256 0.37785,-1.11678 -0.19999,-1.38899 -1.89521,-1.67181 -5.35755,-0.89389 -1.80971,0.40661 -2.80645,0.38295 -3.08847,-0.0734 -0.46432,-0.75125 2.49478,-3.58571 6.90023,-6.6096 4.19504,-2.8795 5.49537,-5.99659 6.03783,-14.47378 0.42859,-6.6976 0.40196,-6.90492 -0.93133,-7.25359 -2.22166,-0.58096 -1.60731,-2.38493 1.33962,-3.93362 3.92498,-2.06271 6.71104,-4.11215 7.08326,-5.21051 0.17834,-0.52646 1.34985,-3.82594 2.60319,-7.33213 1.25338,-3.5062 2.27884,-6.83591 2.27884,-7.39933 0,-0.56344 0.57432,-1.54416 1.2763,-2.17944 0.70194,-0.63527 1.27629,-1.52644 1.27629,-1.98041 0,-0.45395 0.68805,-3.06573 1.529,-5.80397 1.98875,-6.47556 2.72293,-14.2317 1.3471,-14.2317 -0.52893,0 -0.96167,0.43074 -0.96167,0.95721 0,0.52647 -0.21941,0.95723 -0.4876,0.95723 -0.26819,0 -0.98758,1.07688 -1.59861,2.39305 -1.47389,3.17459 -3.33861,6.39443 -4.4643,7.70843 -0.5023,0.58636 -1.09498,1.57777 -1.31708,2.20313 -0.32814,0.9239 -1.01234,1.10336 -3.64969,0.95723 l -3.24585,-0.17985 -2.11669,8.3592 c -2.1915,8.65478 -2.80713,10.24851 -5.07151,13.12962 -0.73758,0.93842 -2.19455,2.88839 -3.23774,4.33329 -2.05619,2.8479 -4.41304,3.35837 -4.52528,0.98008 -0.165,-3.49332 -0.34582,-4.14796 -1.14647,-4.14796 -0.50766,0 -2.0077,2.84743 -3.61387,6.86009 -1.51031,3.77306 -3.49765,8.00876 -4.41634,9.41267 -0.91867,1.40392 -2.08074,3.41409 -2.58236,4.46703 -0.50165,1.05295 -1.71157,2.68638 -2.68877,3.62986 -1.41783,1.36893 -2.19643,1.6477 -3.85456,1.38011 -2.04058,-0.32928 -2.10069,-0.26852 -3.35412,3.38979 -0.9881,2.88389 -1.59757,3.77073 -2.69904,3.92725 -1.0714,0.1524 -1.59411,0.86135 -2.11691,2.87166 -0.38182,1.46822 -0.96096,3.70114 -1.28695,4.96204 -0.32601,1.26091 -1.09638,2.89683 -1.71195,3.63537 -0.61558,0.73851 -2.69864,3.35804 -4.62904,5.8211 -2.21665,2.82838 -3.98002,4.48722 -4.7861,4.50246 -1.2033,0.0227 -1.26459,-0.32648 -1.07135,-6.10803 0.15012,-4.49182 0.005,-6.06522 -0.54564,-5.88194 -0.81373,0.27124 -2.15052,3.72082 -2.81551,7.26558 -1.24312,6.62632 -7.6564,15.79278 -13.24822,18.93557 -1.33151,0.74834 -2.42092,1.59491 -2.42092,1.88126 0,0.28636 -0.39203,0.52065 -0.87116,0.52065 -0.47914,0 -1.55602,0.53366 -2.39303,1.18591 -1.78982,1.39462 -8.65534,3.91928 -10.65804,3.91928 -1.10955,0 -1.39335,-0.37402 -1.39335,-1.83631 0,-1.00998 0.44854,-2.20856 0.99673,-2.66353 1.30507,-1.08311 5.38475,-7.24062 5.38475,-8.12724 0,-0.37907 0.83473,-2.07235 1.85497,-3.76283 1.02025,-1.69046 2.19672,-4.65301 2.6144,-6.58341 0.41767,-1.93038 1.28421,-5.37639 1.92569,-7.65777 0.64145,-2.28137 1.31724,-5.80344 1.50178,-7.82682 0.18464,-2.02337 0.46574,-3.88995 0.62491,-4.14796 0.63177,-1.02409 1.1613,-36.52444 0.54482,-36.52444 -0.71702,0 -3.9265,7.75695 -5.93626,14.34728 -0.7474,2.45078 -2.1882,5.66135 -3.20183,7.13459 -1.01361,1.47326 -1.84292,2.94609 -1.84292,3.27295 0,0.48456 -3.61378,4.19546 -9.94503,10.2123 -1.51325,1.43811 -10.63595,5.31124 -11.6203,4.93349 -0.8309,-0.31884 -0.82971,-0.49383 0.0105,-1.46551 1.99434,-2.30825 5.43139,-8.9277 5.89086,-11.34541 0.59541,-3.1329 0.69571,-3.79296 1.59545,-10.49782 0.40034,-2.98337 0.87947,-6.14219 1.0647,-7.01964 0.1854,-0.87745 0.58226,-5.04135 0.88222,-9.25315 0.29995,-4.21177 0.99014,-13.40109 1.53372,-20.42071 0.54359,-7.01963 0.99463,-14.12698 1.00235,-15.79415 0.0131,-2.72923 -0.13018,-3.0312 -1.43328,-3.0312 -0.79597,0 -2.44717,0.66752 -3.66934,1.4834 -3.1986,2.13529 -15.10135,3.90504 -18.01627,2.67875 -1.91657,-0.80628 -1.23422,-2.70496 1.88176,-5.23617 7.70168,-6.2563 11.05111,-12.24021 12.05168,-21.53081 0.18615,-1.72777 0.56442,-3.59433 0.84078,-4.14797 0.27633,-0.55364 0.56301,-2.44244 0.63706,-4.19735 0.074,-1.7549 0.38293,-4.33941 0.68641,-5.74331 0.30349,-1.40393 0.88677,-6.42935 1.29622,-11.1676 0.77102,-8.9223 0.82413,-9.16639 3.09299,-14.21586 0.82339,-1.83237 1.36972,-4.34652 1.36972,-6.30311 l 0,-3.25488 -3.35027,0.34854 c -4.06305,0.42266 -13.83016,-1.86008 -14.40038,-3.36562 -0.20176,-0.53266 -1.17087,-1.82999 -2.15364,-2.88293 -2.84506,-3.04828 -2.06245,-5.55295 1.34164,-4.29368 2.13425,0.78949 9.98878,-0.3247 12.95436,-1.8376 2.57354,-1.31294 5.54693,-4.16047 5.59207,-5.35536 0.0131,-0.35099 0.47373,-1.49966 1.02331,-2.5526 0.99903,-1.91405 1.95208,-5.76239 2.76565,-11.16758 0.23779,-1.5794 0.92193,-3.84908 1.52049,-5.04368 0.59854,-1.19464 1.08825,-2.5267 1.08825,-2.96018 0,-0.67629 -1.92319,-1.33449 -5.74333,-1.96565 -8.11676,-1.34104 -16.18429,-6.62542 -17.85823,-11.69748 -0.46993,-1.42391 -0.68977,-2.75363 -0.4885,-2.95487 0.20127,-0.20127 2.41856,0.37449 4.92733,1.27947 6.94098,2.50376 11.50941,2.10148 19.94292,-1.75611 4.27567,-1.95572 9.14328,-6.2746 9.68706,-8.59501 0.58659,-2.50292 8.67493,-9.10164 14.74086,-12.02603 l 5.1039,-2.4606 10.84849,0.0959 c 5.96668,0.0526 12.08749,0.19622 13.60177,0.31907 l 2.75328,0.22318 2.12094,-3.82667 c 3.14519,-5.67455 8.83434,-9.25435 11.76131,-7.40059 0.73966,0.46846 0.71385,0.79973 -0.15945,2.04666 -0.73588,1.0506 -1.04206,2.87411 -1.04206,6.20614 0,4.70225 0.008,4.72686 2.63147,7.19668 1.4473,1.36307 2.89526,2.47832 3.21766,2.47832 0.6451,0 0.79191,0.11114 5.14695,3.89125 1.95105,1.69359 3.24792,3.44429 3.66576,4.94855 1.02096,3.6757 0.79541,19.86887 -0.30356,21.79127 -0.5016,0.87746 -0.92218,3.23178 -0.93459,5.23184 -0.0227,3.74536 0.97967,5.53926 4.03902,7.22424 1.18601,0.65324 3.59465,6.0702 3.59563,8.0865 6.3e-4,1.35535 -0.85996,1.91208 -2.17544,1.40731 -0.70874,-0.27197 -1.01479,-1.21251 -1.01479,-3.1186 l 0,-2.72916 -6.22879,-0.25014 c -4.55203,-0.18287 -6.65172,-0.5464 -7.79977,-1.35052 -4.83307,-3.38521 -7.2445,0.44839 -6.95941,11.06385 0.095,3.5369 0.59511,7.80721 1.11136,9.48964 l 0.93866,3.05892 5.40234,0.38124 c 5.91326,0.41731 6.84548,0.9148 9.47843,5.05848 1.17366,1.84707 1.9343,2.39305 3.33383,2.39305 1.88457,0 3.32661,1.10997 7.06442,5.43763 1.20622,1.39655 2.64207,2.6089 3.19074,2.69403 0.54867,0.0852 1.95299,0.33638 3.1207,0.55828 1.8613,0.35365 9.88343,-0.52976 13.0329,-1.43525 1.53782,-0.44212 1.41109,-2.14951 -0.15944,-2.14951 -0.86841,0 -1.2763,-0.42542 -1.2763,-1.33118 0,-0.97734 0.80576,-1.68223 3.03119,-2.65166 3.21218,-1.3993 7.56269,-5.72886 6.87487,-6.84177 -0.22495,-0.36414 -1.05527,-0.66205 -1.8449,-0.66205 -0.78966,0 -1.99316,-0.43074 -2.67446,-0.95723 -1.22438,-0.94611 -1.22392,-0.96863 0.0375,-1.94215 0.70197,-0.5417 1.94678,-1.1533 2.76629,-1.35907 0.81951,-0.2058 2.6071,-1.55733 3.97247,-3.00348 1.9321,-2.04641 2.48601,-3.14257 2.49844,-4.94428 0.008,-1.2732 0.44668,-2.67239 0.97316,-3.10932 1.47917,-1.22761 1.17255,-3.11238 -0.57784,-3.55172 -1.6653,-0.41794 -2.77915,-2.82976 -1.30691,-2.82976 2.14844,0 4.02184,-1.62183 5.60711,-4.85416 2.31901,-4.72832 2.23216,-5.75282 -0.53164,-6.27132 -3.18908,-0.59828 -2.85001,-2.34496 0.97536,-5.02432 1.61173,-1.12892 5.67055,-10.07557 6.14659,-13.54876 0.49335,-3.59933 -0.0759,-3.84858 -9.94714,-4.35551 -8.48669,-0.43583 -9.33792,-0.72791 -12.75848,-4.3776 -1.30754,-1.39509 -1.96046,-2.74443 -1.96243,-4.05559 -0.003,-2.13193 -0.16374,-2.23019 -10.3177,-6.31322 -2.33881,-0.94044 -4.69216,-2.19586 -5.22965,-2.78977 -2.2287,-2.4627 -3.57185,-6.75101 -3.58601,-11.44927 -0.0151,-4.49703 0.029,-4.62603 1.29954,-3.94602 0.72246,0.38666 3.31676,2.7626 5.76514,5.27986 2.44837,2.51727 4.94431,4.58015 5.54654,4.58416 1.39765,0.0105 2.79821,-1.77311 4.30376,-5.4773 0.67165,-1.65248 2.04167,-3.5212 3.1394,-4.28211 1.07123,-0.74253 3.09636,-2.15631 4.50029,-3.14169 2.25546,-1.58311 3.07322,-1.78077 7.02552,-1.69822 2.4601,0.0514 5.84435,0.559 7.52053,1.12808 3.9916,1.35519 3.98322,1.3565 6.02927,-0.94392 2.56074,-2.87905 5.0431,-3.93235 9.63427,-4.08802 3.91912,-0.13299 9.73083,1.19313 13.04614,2.97654 0.77803,0.41855 2.41967,0.9705 3.6481,1.22662 1.22844,0.25613 4.67443,1.37212 7.65776,2.48002 3.59961,1.33678 6.92693,2.09405 9.89129,2.25126 3.72282,0.19747 4.49629,0.4301 4.64254,1.39667 0.10708,0.70639 -0.5784,1.65869 -1.75306,2.43606 -3.05772,2.02352 -2.54544,3.34135 1.49512,3.84621 3.61019,0.45106 10.79513,0.0703 12.68586,-0.67244 1.83613,-0.72122 1.36093,1.6987 -0.7977,4.06211 -1.05294,1.15283 -1.91445,2.33731 -1.91445,2.6322 0,0.29489 -2.16119,1.64119 -4.80265,2.99182 -3.79449,1.94014 -4.76574,2.72273 -4.6266,3.72785 0.11837,0.85574 0.80282,1.38004 2.09057,1.60162 1.7506,0.30127 1.97719,0.64301 1.6911,2.55043 -0.0526,0.35098 -0.75877,0.63815 -1.56913,0.63815 -0.81036,0 -2.01918,0.39907 -2.68625,0.88686 -1.1576,0.84644 -1.17601,1.25796 -0.40439,9.03658 0.80913,8.1572 1.74494,11.28988 3.5832,11.99528 0.53948,0.20706 0.98084,0.81614 0.98084,1.35364 0,0.80195 -0.98629,0.97723 -5.49848,0.97723 l -5.49847,0 0.32705,6.22194 c 0.39962,7.60203 0.67184,8.85657 2.68636,12.38049 2.13051,3.7268 2.05129,4.80896 -0.39123,5.34541 l -1.9933,0.43782 0.36486,6.79206 c 0.44112,8.21163 1.20899,11.06836 3.66617,13.63957 2.28876,2.39497 2.36017,3.42054 0.27464,3.94397 -1.25539,0.31509 -1.59537,0.80581 -1.59537,2.30269 0,1.88865 0.0264,1.9024 3.66934,1.91752 2.01814,0.008 4.79687,0.27673 6.17495,0.59633 1.86167,0.43177 2.96058,0.34586 4.27579,-0.33429 0.97363,-0.50348 3.38441,-0.91541 5.35732,-0.91541 1.97287,0 3.98734,-0.35894 4.47655,-0.7977 2.12744,-1.90784 2.72885,-2.23802 5.0961,-2.79785 2.06853,-0.48921 2.60489,-0.95126 3.09731,-2.66831 0.32756,-1.14215 1.72423,-3.35886 3.10368,-4.92602 l 2.50814,-2.84937 5.05986,0 c 4.16357,0 5.45348,-0.25433 7.28173,-1.43582 1.222,-0.78972 2.38596,-1.93837 2.58663,-2.5526 0.20075,-0.61421 0.60103,-1.11674 0.88971,-1.11674 1.25599,0 3.21801,-5.83618 3.21801,-9.57222 0,-3.67373 -1.70193,-8.81778 -3.48368,-10.52945 -1.29469,-1.24373 -3.63675,-0.64084 -5.01874,1.29194 -2.19986,3.07653 -3.0419,3.4526 -7.77035,3.47032 -5.68711,0.0202 -8.85165,-0.86372 -10.14474,-2.83724 -1.47102,-2.24505 -1.275,-2.88221 0.88676,-2.88221 2.79277,0 4.98019,-2.20821 5.47839,-5.53049 0.35111,-2.34145 0.0917,-3.47583 -1.60948,-7.03718 l -2.02809,-4.24578 0.45207,-8.90565 0.45205,-8.9057 3.72329,-3.74647 c 2.0478,-2.06057 3.99234,-3.74648 4.32125,-3.74648 0.32889,0 1.19188,-1.79478 1.91778,-3.98842 1.19449,-3.60969 1.23917,-4.29139 0.47053,-7.17916 -0.46714,-1.75491 -1.33217,-4.12403 -1.92234,-5.26471 l -1.07302,-2.07399 1.66933,0 c 0.91812,0 2.7203,0.76044 4.00481,1.68988 2.02238,1.46334 3.37835,3.0757 7.29847,8.67859 1.0828,1.54763 3.06639,1.4533 9.71439,-0.46198 4.68529,-1.34982 6.15481,-1.53618 7.97686,-1.01166 4.69753,1.35232 11.9857,3.38099 16.37145,4.55707 8.21992,2.20414 12.24814,4.43413 17.62063,9.75458 2.71421,2.68789 4.93491,5.31736 4.93491,5.84324 0,1.30428 5.14959,6.68655 6.39755,6.68655 0.55274,0 1.34957,0.34459 1.77074,0.76576 0.42118,0.42119 0.76579,0.5794 0.76579,0.35166 0,-0.2277 0.98,-0.005 2.17784,0.49581 1.19778,0.50046 4.33756,0.95176 6.97727,1.00287 3.93274,0.0761 5.20856,-0.15996 7.06506,-1.30731 2.25839,-1.39576 4.86806,-1.56751 5.26892,-0.34678 0.11613,0.35361 -0.44389,1.3587 -1.24446,2.23351 -0.80054,0.87481 -2.15757,2.59565 -3.01557,3.82408 -0.85803,1.22844 -2.27717,2.80669 -3.15369,3.5072 -0.87648,0.70052 -2.02492,1.77739 -2.55206,2.39305 -0.52717,0.61565 -1.68434,1.12329 -2.57153,1.1281 -0.8872,0.005 -2.2931,0.19068 -3.12422,0.41318 -1.50394,0.40255 -1.5096,0.43975 -1.18726,7.80861 0.55156,12.60918 2.8085,17.55552 9.24945,20.27114 2.59358,1.0935 9.49673,0.6941 12.20449,-0.70613 2.53468,-1.31073 2.62472,-1.28446 2.60837,0.76157 -0.0491,6.15092 -6.58731,12.16211 -14.66339,13.4814 -2.63234,0.43 -5.03301,1.0286 -5.33478,1.33023 -0.30611,0.30592 -0.0995,1.34964 0.46738,2.36079 1.68626,3.00794 3.9155,13.06688 5.2101,23.50949 0.82682,6.6695 3.03203,15.98829 4.53428,19.16105 2.00645,4.23774 6.1056,8.37381 9.9819,10.07183 1.99897,0.87568 2.99044,1.67842 2.87164,2.32506 -0.30909,1.6824 -4.39243,3.17955 -9.13237,3.34839 -4.03564,0.14383 -4.90485,-0.0675 -9.33113,-2.26744 -2.68453,-1.33432 -5.53449,-3.12163 -6.33319,-3.97182 -0.79871,-0.85019 -2.04828,-1.54536 -2.7768,-1.54484 -1.23539,6.3e-4 -1.33875,0.41875 -1.53459,6.20497 -0.11561,3.41224 -0.33749,6.41031 -0.49329,6.6624 -0.3824,0.61873 -0.3618,54.36401 0.0202,55.48511 0.16651,0.48707 0.44449,1.74707 0.61795,2.80001 0.58986,3.5811 1.08111,5.61976 1.59998,6.63975 0.28485,0.55991 0.69938,1.97459 0.92122,3.14375 0.22193,1.16915 0.98023,2.85908 1.68525,3.75542 0.70506,0.89632 1.28192,1.99774 1.28192,2.44765 0,0.44988 0.30359,0.91916 0.67464,1.04286 0.3711,0.12375 0.48395,0.72196 0.25089,1.32948 -0.765,1.99359 -5.53706,1.44159 -10.40125,-1.20315 -2.3344,-1.26925 -4.89542,-2.9033 -5.69112,-3.63127 -1.78857,-1.6363 -5.25381,-8.44919 -5.25381,-10.32934 0,-0.76289 -0.21083,-1.59797 -0.46867,-1.85573 -0.61326,-0.61327 -1.99056,-7.164 -2.04296,-9.71674 -0.04,-1.95323 -1.58325,-4.0133 -2.39684,-3.19971 -0.5902,0.59019 -0.60875,34.1057 -0.0227,40.93182 0.68913,8.02647 1.81744,14.27074 3.69808,20.466 0.32719,1.07787 0.59489,2.56856 0.59489,3.31263 0,0.74407 0.29188,1.53324 0.64855,1.75369 0.35672,0.2204 0.49768,0.645 0.31325,0.94345 -0.1844,0.29841 0.038,0.92469 0.49428,1.3917 1.63773,1.67615 3.01096,4.02554 3.01096,5.15126 0,0.9295 -0.33212,1.06509 -1.75491,0.71649 -0.96519,-0.23653 -1.85061,-0.67268 -1.96763,-0.96937 -0.11691,-0.29668 -0.51866,-0.53943 -0.89258,-0.53943 -0.88974,0 -8.69145,-3.87314 -10.2834,-5.10518 -0.68025,-0.52645 -1.8421,-1.64154 -2.58183,-2.47792 -0.73977,-0.8364 -1.66608,-1.85488 -2.0585,-2.2633 -0.39243,-0.4084 -0.90743,-1.35358 -1.14447,-2.10037 -0.23702,-0.74682 -1.10931,-2.35745 -1.93841,-3.57921 -0.82912,-1.22179 -1.66122,-3.18188 -1.84908,-4.35575 -0.52543,-3.28312 -2.37138,-9.72734 -2.96167,-10.33925 -0.87286,-0.90481 -2.11873,2.21635 -2.51095,6.29045 -0.32697,3.39649 -0.53669,3.8527 -1.85704,4.0397 -1.83774,0.26031 -3.40203,-1.10432 -6.45955,-5.63507 -4.84978,-7.18655 -6.88794,-13.33073 -8.67918,-26.16405 -0.74039,-5.30458 -1.80444,-8.93404 -2.61916,-8.93404 -0.64907,0 -0.85766,1.34639 -0.86498,5.58378 -0.0105,6.03163 -1.1891,11.22124 -2.61242,11.50261 -0.89201,0.17632 -3.63599,-3.46119 -7.35671,-9.75245 -1.88767,-3.19173 -4.52928,-10.12387 -5.05128,-13.2555 -1.11947,-6.71599 -2.29211,-10.67026 -3.16429,-10.67026 -0.89721,0 -2.21572,4.5664 -2.24662,7.78079 -0.0131,1.16078 -0.44248,2.66867 -0.95849,3.3509 -0.92913,1.22849 -0.95399,1.22849 -2.58141,0 -1.96887,-1.48624 -4.73573,-6.3071 -4.73573,-8.25139 0,-0.53121 -0.22595,-0.96589 -0.50235,-0.96589 -0.2763,0 -0.54585,-0.57736 -0.599,-1.28308 -0.0531,-0.70567 -0.66536,-2.93124 -1.36041,-4.94563 -0.69508,-2.01442 -1.48619,-4.66764 -1.75805,-5.89607 -0.27184,-1.22844 -0.52633,-2.37711 -0.56555,-2.5526 -0.0391,-0.17556 -0.29647,-2.83071 -0.57172,-5.90049 -0.27524,-3.06976 -0.77453,-5.75082 -1.10954,-5.95788 -0.33505,-0.20705 -1.30433,0.0791 -2.154,0.63579 -0.84966,0.55671 -1.91391,1.01223 -2.36497,1.01221 -2.16159,-6e-5 -9.64007,-11.77096 -10.6662,-16.78831 -0.2184,-1.06787 -0.74244,-2.05671 -1.16448,-2.19739 -0.57944,-0.1932 -0.67649,1.27982 -0.39631,6.01467 0.43741,7.39163 1.77363,13.95841 3.11273,15.29752 0.52548,0.52548 0.97903,2.01178 1.00787,3.30289 0.16903,7.56047 2.34421,12.63404 8.06215,18.80485 2.69486,2.90831 2.81313,3.19549 2.44224,5.93028 -0.55075,4.06101 2.79763,11.08176 6.92524,14.52057 3.15475,2.62834 3.77501,4.69924 1.78057,5.9448 -1.66533,1.04003 -1.25865,4.07872 0.99223,7.41387 1.03395,1.53202 2.0718,3.98554 2.30634,5.45224 0.23452,1.46671 0.97004,3.88824 1.63449,5.38116 0.66441,1.49295 1.6986,3.90988 2.29818,5.37094 0.59956,1.46106 1.60165,2.79025 2.22684,2.95373 0.63898,0.167 1.3276,1.16614 1.57256,2.2814 0.23954,1.09126 1.0708,2.49015 1.84692,3.10863 0.77612,0.61853 1.76553,1.98606 2.19867,3.039 0.43315,1.05294 1.85804,4.06819 3.16643,6.70056 l 2.37891,4.78608 3.42342,0.19547 c 2.44493,0.13955 4.22137,-0.1796 6.215,-1.11677 1.53535,-0.72171 3.01004,-1.31414 3.27709,-1.31653 0.26709,-0.003 1.18836,-1.03614 2.04729,-2.29717 2.66172,-3.90779 7.65866,-5.00179 12.48465,-2.73332 1.63857,0.77023 3.14941,1.85919 3.35739,2.41995 0.39225,1.05741 2.72849,4.60814 3.40006,5.16747 1.96903,1.64008 2.33166,7.17313 0.87826,13.40111 -2.19896,9.42263 -4.76966,15.63755 -6.6743,16.13563 -0.57838,0.15113 -1.34419,1.61847 -1.82604,3.49847 -0.84454,3.29528 -1.57675,3.97736 -4.26982,3.97736 -1.79523,0 -4.76396,1.25682 -4.76396,2.01686 0,1.01765 -5.21591,0.54351 -6.9211,-0.62916 -0.93164,-0.64069 -2.69898,-1.54799 -3.92742,-2.01625 -2.31537,-0.88257 -4.42815,-2.93097 -4.45282,-4.31711 -0.0105,-0.5578 1.23325,-0.79767 4.13376,-0.79767 4.14691,0 4.14796,-4.9e-4 4.14796,-1.84151 0,-1.90011 -1.47565,-5.40417 -2.03872,-4.84111 -0.17482,0.17481 -1.94941,-0.40397 -3.94378,-1.28595 -2.55781,-1.13118 -4.7532,-1.60366 -7.45181,-1.60366 l -3.82574,0 0.24987,2.26713 c 0.25472,2.31152 1.53916,3.94132 4.2492,5.39168 l 1.51692,0.81186 -1.46828,1.18891 c -1.13445,0.91864 -2.53387,1.18894 -6.15535,1.18894 -5.6458,0 -8.19703,-1.4041 -11.9229,-6.56196 -2.16231,-2.99339 -2.39304,-3.70093 -2.39304,-7.33851 0,-4.95259 1.41819,-6.74768 5.85686,-7.41329 1.59767,-0.23955 3.43226,-0.82124 4.07686,-1.29259 1.11944,-0.81855 1.07568,-1.06778 -0.97554,-5.55762 -1.18114,-2.58536 -2.82905,-5.52501 -3.66204,-6.53256 -0.83298,-1.00758 -1.92884,-2.73058 -2.43528,-3.82888 -1.20935,-2.62283 -2.16949,-4.02127 -4.2967,-6.25806 -0.96519,-1.01491 -1.7549,-2.23445 -1.7549,-2.71005 0,-0.47563 -0.99843,-1.97334 -2.21871,-3.32828 -1.2203,-1.35493 -2.22538,-2.68291 -2.23352,-2.95107 -0.0325,-1.0752 -2.95365,-4.88814 -3.94314,-5.14724 -0.58117,-0.15215 -1.82865,0.22972 -2.77222,0.84868 -2.46031,1.61395 -4.03769,0.97422 -4.50051,-1.82522 -0.21135,-1.27751 -0.63312,-3.10956 -0.93756,-4.07126 -0.30441,-0.96172 -0.43429,-2.36754 -0.28859,-3.12405 0.29555,-1.53468 -1.50066,-5.01871 -2.58746,-5.01871 -0.38512,0 -1.52558,0.8615 -2.53438,1.91446 -3.13628,3.27356 -3.86194,2.49772 -4.52469,-4.83741 -0.1927,-2.13407 -0.70404,-5.43648 -1.13604,-7.33867 -0.90919,-4.00346 -0.9833,-4.0195 -8.26376,-1.78734 l -4.35228,1.33441 0.38444,2.32608 c 0.21135,1.27935 0.50669,6.17843 0.65614,10.88686 0.14937,4.70843 0.49915,8.72876 0.77712,8.93404 1.48834,1.09933 2.14702,3.54736 1.80548,6.71018 -0.54916,5.08549 1.30283,10.38663 4.72458,13.52344 3.37136,3.09061 6.66698,4.66999 9.78997,4.69163 1.32745,0.008 3.35039,0.40817 4.49544,0.88661 2.4885,1.03974 7.31449,6.3342 7.88389,8.64916 0.22293,0.90669 0.84059,2.32027 1.37242,3.14126 0.98757,1.52457 2.54489,1.62638 6.32939,0.41384 1.2982,-0.41595 1.43368,-0.25409 1.41322,1.68837 -0.0345,3.28193 -2.7592,7.28906 -5.91026,8.69226 -1.0365,0.46155 -4.44817,0.79483 -8.13638,0.79483 -4.18771,0 -6.35145,0.23879 -6.35145,0.70087 0,0.38544 1.07687,1.66174 2.39304,2.83617 2.45428,2.18999 8.81931,4.15702 16.4323,5.0782 6.31226,0.7638 12.24631,3.40284 14.83694,6.59842 0.44706,0.55147 0.79767,2.72748 0.79767,4.95051 l 0,3.96659 -3.2191,2.69518 c -3.06437,2.56565 -3.26158,2.6375 -4.1027,1.49527 -0.48599,-0.65996 -1.05514,-2.10437 -1.26482,-3.20979 -0.73029,-3.85024 -3.69306,-4.51487 -4.46471,-1.00155 -0.49437,2.25093 -3.76652,5.469 -6.47614,6.36911 -1.08811,0.36147 -4.17518,0.57682 -6.86009,0.47856 -2.68491,-0.0983 -4.88165,0.0295 -4.88165,0.28367 0,0.25426 1.50761,0.82493 3.35026,1.26811 7.45022,1.79193 13.57386,6.58718 13.89993,10.88472 0.28339,3.73498 -0.10078,5.03244 -2.05583,6.94389 -1.44965,1.41733 -2.64357,1.99016 -4.14793,1.99016 -1.9811,0 -2.11239,-0.13627 -2.11239,-2.19196 0,-5.57804 -3.07355,-7.37583 -5.79881,-3.39183 -2.29076,3.3488 -3.01294,3.66934 -8.26717,3.66934 -4.88727,0 -8.90732,-0.89218 -8.90732,-1.97686 0,-0.31665 -0.35895,-0.5778 -0.79768,-0.58033 -0.94855,-0.005 -11.32711,-10.42693 -11.32711,-11.37395 0,-0.36028 -0.37052,-1.03455 -0.82334,-1.49834 -0.45286,-0.46379 -2.08182,-3.9303 -3.62,-7.70335 -1.57815,-3.87118 -3.16569,-6.86007 -3.6437,-6.86007 -1.02769,0 -1.13785,4.49847 -0.23527,9.61453 0.33642,1.90712 0.71493,4.75972 0.84114,6.33915 0.12623,1.57939 0.8391,4.04745 1.58421,5.48453 1.15447,2.22667 1.92313,2.82015 5.20002,4.01497 4.52581,1.6502 5.05436,2.25999 3.47318,4.00714 -1.73554,1.91778 -4.08433,2.9608 -7.76767,3.44941 -3.17488,0.42117 -3.28727,0.50653 -3.61687,2.74736 -0.18715,1.27197 -0.6241,3.53725 -0.97107,5.03395 -0.34699,1.49671 -0.63088,3.29541 -0.63088,3.99708 0,0.70168 -0.27811,1.77444 -0.61804,2.3839 -0.78467,1.4069 -2.57269,6.96442 -2.57269,7.99652 0,0.42979 -0.57432,1.1401 -1.2763,1.57847 -0.70196,0.43838 -1.2763,1.10232 -1.2763,1.47537 0,0.64155 -1.53953,2.50161 -2.07052,2.50161 -0.13602,0 -1.18511,-1.05937 -2.3314,-2.35413 z M 356.07361,292.37649 c 0,-0.91968 -1.0812,-1.14867 -5.42425,-1.14867 -3.34831,0 -4.14796,0.22143 -4.14796,1.14867 0,0.76579 0.95721,0.95723 4.78611,0.95723 3.82889,0 4.7861,-0.19144 4.7861,-0.95723 z m 1.91445,-9.5023 c 0,-0.74703 -0.64613,-1.76643 -1.43584,-2.26527 -1.57053,-0.99207 -10.88774,-1.72326 -13.5249,-1.06137 -1.59267,0.39973 -2.19926,1.87304 -1.06085,2.5766 1.51023,0.9334 7.30744,1.96418 11.43009,2.03239 4.28223,0.0707 4.5915,-0.0151 4.5915,-1.28235 z"
       style="fill:#000000" />
  </g>
</svg>
